<svg xmlns="http://www.w3.org/2000/svg" width="256" height="256" viewBox="0 0 100 100"><rect width="100" height="100" rx="20" fill="#106fdf"></rect><path d="M20.93 66.16L20.93 66.16Q25.34 66.16 27.14 64.72Q28.94 63.27 28.94 61.47L28.94 61.47Q28.94 59.67 27.50 58.64Q26.06 57.60 23.45 56.70L23.45 56.70L19.67 55.45Q15.71 54.09 12.47 52.70Q9.23 51.30 6.89 49.33Q4.55 47.34 3.24 44.60Q1.94 41.85 1.94 37.89L1.94 37.89Q1.94 30.24 7.83 25.66Q13.73 21.06 24.35 21.06L24.35 21.06Q28.22 21.06 31.55 21.60Q34.88 22.15 37.26 23.27Q39.65 24.40 41.00 26.15Q42.35 27.91 42.35 30.24L42.35 30.24Q42.35 32.59 41.27 34.25Q40.19 35.91 38.66 37.09L38.66 37.09Q36.68 35.82 33.35 34.88Q30.02 33.94 26.06 33.94L26.06 33.94Q22.01 33.94 20.12 35.06Q18.23 36.19 18.23 37.89L18.23 37.89Q18.23 39.24 19.40 40.10Q20.57 40.95 22.91 41.67L22.91 41.67L27.68 43.20Q36.14 45.91 40.68 50.18Q45.23 54.45 45.23 61.66L45.23 61.66Q45.23 65.44 43.70 68.63Q42.17 71.83 39.15 74.12Q36.14 76.41 31.68 77.67Q27.23 78.94 21.47 78.94L21.47 78.94Q17.33 78.94 13.77 78.26Q10.22 77.58 7.56 76.28Q4.91 74.97 3.42 73.04Q1.94 71.11 1.94 68.58L1.94 68.58Q1.94 65.97 3.47 64.13Q5.00 62.28 6.80 61.30L6.80 61.30Q9.32 63.27 12.96 64.72Q16.61 66.16 20.93 66.16ZM74.75 60.39L69.53 60.39L69.53 77.22Q68.54 77.50 66.47 77.77Q64.40 78.03 62.24 78.03L62.24 78.03Q57.47 78.03 55.62 76.41Q53.78 74.80 53.78 70.56L53.78 70.56L53.78 27.91Q53.78 26.02 54.81 24.98Q55.85 23.95 57.65 23.31L57.65 23.31Q60.71 22.23 64.89 21.74Q69.08 21.24 72.50 21.24L72.50 21.24Q84.92 21.24 91.49 26.55Q98.06 31.87 98.06 40.95L98.06 40.95Q98.06 45.36 96.39 48.92Q94.73 52.47 91.71 55.04Q88.70 57.60 84.38 59Q80.06 60.39 74.75 60.39L74.75 60.39ZM69.44 48.06L73.76 48.06Q77.54 48.06 79.79 46.22Q82.04 44.38 82.04 40.95L82.04 40.95Q82.04 37.53 79.92 35.69Q77.81 33.84 73.76 33.84L73.76 33.84Q72.32 33.84 71.38 33.89Q70.43 33.94 69.44 34.12L69.44 34.12L69.44 48.06Z" fill="#fff"></path></svg>